<svg xmlns="http://www.w3.org/2000/svg" width="14.471" height="14.5" viewBox="0 0 14.471 14.5">
  <path id="Icon_zocial-github" data-name="Icon zocial-github" d="M0,7.056A6.98,6.98,0,0,1,.58,4.243,7,7,0,0,1,4.423.4a7.112,7.112,0,0,1,5.626,0,7.064,7.064,0,0,1,3.843,3.843,7.112,7.112,0,0,1,0,5.626,7.116,7.116,0,0,1-3.843,3.872,7.112,7.112,0,0,1-5.626,0A7.055,7.055,0,0,1,.58,9.869,6.98,6.98,0,0,1,0,7.056Zm1.131,0A5.9,5.9,0,0,0,2.349,10.71,6.519,6.519,0,0,0,5.5,12.957V11.8a1.411,1.411,0,0,1,.58-1.262,4.162,4.162,0,0,1-.682-.1A3.426,3.426,0,0,1,4.133,9.97a3.091,3.091,0,0,1-1.32-2.886,2.607,2.607,0,0,1,.725-1.856,2.439,2.439,0,0,1,.073-1.856H3.9a1.193,1.193,0,0,1,.363.073,4.986,4.986,0,0,1,1.262.638,6.84,6.84,0,0,1,1.74-.232,7.007,7.007,0,0,1,1.755.232,6.178,6.178,0,0,1,1.059-.58,1.572,1.572,0,0,1,.667-.145l.174.015a2.532,2.532,0,0,1,.073,1.856,2.607,2.607,0,0,1,.725,1.856,3.4,3.4,0,0,1-.8,2.451,2.916,2.916,0,0,1-1.146.725,4.987,4.987,0,0,1-1.32.276A1.443,1.443,0,0,1,9.048,11.8v1.16a6.567,6.567,0,0,0,3.089-2.277,5.909,5.909,0,0,0,1.189-3.625,6.111,6.111,0,0,0-.479-2.378A6.169,6.169,0,0,0,7.236.951a6.167,6.167,0,0,0-2.378.493A6.376,6.376,0,0,0,2.915,2.735,6.726,6.726,0,0,0,1.61,4.678a6.111,6.111,0,0,0-.479,2.378Z" transform="translate(0 0.18)" fill="#b928e5"/>
</svg>
