<svg xmlns="http://www.w3.org/2000/svg" width="102" height="102" viewBox="0 0 102 102">
  <g id="Group_57" data-name="Group 57" transform="translate(-536 -1182)" opacity="0.2">
    <circle id="Ellipse_14" data-name="Ellipse 14" cx="2" cy="2" r="2" transform="translate(536 1182)" fill="#2c374c"/>
    <circle id="Ellipse_74" data-name="Ellipse 74" cx="2" cy="2" r="2" transform="translate(536 1238)" fill="#2c374c"/>
    <circle id="Ellipse_15" data-name="Ellipse 15" cx="2" cy="2" r="2" transform="translate(550 1182)" fill="#2c374c"/>
    <circle id="Ellipse_70" data-name="Ellipse 70" cx="2" cy="2" r="2" transform="translate(550 1238)" fill="#2c374c"/>
    <circle id="Ellipse_16" data-name="Ellipse 16" cx="2" cy="2" r="2" transform="translate(564 1182)" fill="#2c374c"/>
    <circle id="Ellipse_66" data-name="Ellipse 66" cx="2" cy="2" r="2" transform="translate(564 1238)" fill="#2c374c"/>
    <circle id="Ellipse_17" data-name="Ellipse 17" cx="2" cy="2" r="2" transform="translate(578 1182)" fill="#2c374c"/>
    <circle id="Ellipse_62" data-name="Ellipse 62" cx="2" cy="2" r="2" transform="translate(578 1238)" fill="#2c374c"/>
    <circle id="Ellipse_18" data-name="Ellipse 18" cx="2" cy="2" r="2" transform="translate(592 1182)" fill="#2c374c"/>
    <circle id="Ellipse_52" data-name="Ellipse 52" cx="2" cy="2" r="2" transform="translate(592 1238)" fill="#2c374c"/>
    <circle id="Ellipse_19" data-name="Ellipse 19" cx="2" cy="2" r="2" transform="translate(606 1182)" fill="#2c374c"/>
    <circle id="Ellipse_53" data-name="Ellipse 53" cx="2" cy="2" r="2" transform="translate(606 1238)" fill="#2c374c"/>
    <circle id="Ellipse_20" data-name="Ellipse 20" cx="2" cy="2" r="2" transform="translate(620 1182)" fill="#2c374c"/>
    <circle id="Ellipse_54" data-name="Ellipse 54" cx="2" cy="2" r="2" transform="translate(620 1238)" fill="#2c374c"/>
    <circle id="Ellipse_21" data-name="Ellipse 21" cx="2" cy="2" r="2" transform="translate(634 1182)" fill="#2c374c"/>
    <circle id="Ellipse_55" data-name="Ellipse 55" cx="2" cy="2" r="2" transform="translate(634 1238)" fill="#2c374c"/>
    <circle id="Ellipse_22" data-name="Ellipse 22" cx="2" cy="2" r="2" transform="translate(536 1196)" fill="#2c374c"/>
    <circle id="Ellipse_75" data-name="Ellipse 75" cx="2" cy="2" r="2" transform="translate(536 1252)" fill="#2c374c"/>
    <circle id="Ellipse_37" data-name="Ellipse 37" cx="2" cy="2" r="2" transform="translate(536 1210)" fill="#2c374c"/>
    <circle id="Ellipse_76" data-name="Ellipse 76" cx="2" cy="2" r="2" transform="translate(536 1266)" fill="#2c374c"/>
    <circle id="Ellipse_45" data-name="Ellipse 45" cx="2" cy="2" r="2" transform="translate(536 1224)" fill="#2c374c"/>
    <circle id="Ellipse_77" data-name="Ellipse 77" cx="2" cy="2" r="2" transform="translate(536 1280)" fill="#2c374c"/>
    <circle id="Ellipse_23" data-name="Ellipse 23" cx="2" cy="2" r="2" transform="translate(550 1196)" fill="#2c374c"/>
    <circle id="Ellipse_71" data-name="Ellipse 71" cx="2" cy="2" r="2" transform="translate(550 1252)" fill="#2c374c"/>
    <circle id="Ellipse_33" data-name="Ellipse 33" cx="2" cy="2" r="2" transform="translate(550 1210)" fill="#2c374c"/>
    <circle id="Ellipse_72" data-name="Ellipse 72" cx="2" cy="2" r="2" transform="translate(550 1266)" fill="#2c374c"/>
    <circle id="Ellipse_41" data-name="Ellipse 41" cx="2" cy="2" r="2" transform="translate(550 1224)" fill="#2c374c"/>
    <circle id="Ellipse_73" data-name="Ellipse 73" cx="2" cy="2" r="2" transform="translate(550 1280)" fill="#2c374c"/>
    <circle id="Ellipse_24" data-name="Ellipse 24" cx="2" cy="2" r="2" transform="translate(564 1196)" fill="#2c374c"/>
    <circle id="Ellipse_67" data-name="Ellipse 67" cx="2" cy="2" r="2" transform="translate(564 1252)" fill="#2c374c"/>
    <circle id="Ellipse_34" data-name="Ellipse 34" cx="2" cy="2" r="2" transform="translate(564 1210)" fill="#2c374c"/>
    <circle id="Ellipse_68" data-name="Ellipse 68" cx="2" cy="2" r="2" transform="translate(564 1266)" fill="#2c374c"/>
    <circle id="Ellipse_42" data-name="Ellipse 42" cx="2" cy="2" r="2" transform="translate(564 1224)" fill="#2c374c"/>
    <circle id="Ellipse_69" data-name="Ellipse 69" cx="2" cy="2" r="2" transform="translate(564 1280)" fill="#2c374c"/>
    <circle id="Ellipse_25" data-name="Ellipse 25" cx="2" cy="2" r="2" transform="translate(578 1196)" fill="#2c374c"/>
    <circle id="Ellipse_63" data-name="Ellipse 63" cx="2" cy="2" r="2" transform="translate(578 1252)" fill="#2c374c"/>
    <circle id="Ellipse_35" data-name="Ellipse 35" cx="2" cy="2" r="2" transform="translate(578 1210)" fill="#2c374c"/>
    <circle id="Ellipse_64" data-name="Ellipse 64" cx="2" cy="2" r="2" transform="translate(578 1266)" fill="#2c374c"/>
    <circle id="Ellipse_43" data-name="Ellipse 43" cx="2" cy="2" r="2" transform="translate(578 1224)" fill="#2c374c"/>
    <circle id="Ellipse_65" data-name="Ellipse 65" cx="2" cy="2" r="2" transform="translate(578 1280)" fill="#2c374c"/>
    <circle id="Ellipse_26" data-name="Ellipse 26" cx="2" cy="2" r="2" transform="translate(592 1196)" fill="#2c374c"/>
    <circle id="Ellipse_56" data-name="Ellipse 56" cx="2" cy="2" r="2" transform="translate(592 1252)" fill="#2c374c"/>
    <circle id="Ellipse_36" data-name="Ellipse 36" cx="2" cy="2" r="2" transform="translate(592 1210)" fill="#2c374c"/>
    <circle id="Ellipse_57" data-name="Ellipse 57" cx="2" cy="2" r="2" transform="translate(592 1266)" fill="#2c374c"/>
    <circle id="Ellipse_44" data-name="Ellipse 44" cx="2" cy="2" r="2" transform="translate(592 1224)" fill="#2c374c"/>
    <circle id="Ellipse_58" data-name="Ellipse 58" cx="2" cy="2" r="2" transform="translate(592 1280)" fill="#2c374c"/>
    <circle id="Ellipse_27" data-name="Ellipse 27" cx="2" cy="2" r="2" transform="translate(606 1196)" fill="#2c374c"/>
    <circle id="Ellipse_59" data-name="Ellipse 59" cx="2" cy="2" r="2" transform="translate(606 1252)" fill="#2c374c"/>
    <circle id="Ellipse_32" data-name="Ellipse 32" cx="2" cy="2" r="2" transform="translate(606 1210)" fill="#2c374c"/>
    <circle id="Ellipse_60" data-name="Ellipse 60" cx="2" cy="2" r="2" transform="translate(606 1266)" fill="#2c374c"/>
    <circle id="Ellipse_40" data-name="Ellipse 40" cx="2" cy="2" r="2" transform="translate(606 1224)" fill="#2c374c"/>
    <circle id="Ellipse_61" data-name="Ellipse 61" cx="2" cy="2" r="2" transform="translate(606 1280)" fill="#2c374c"/>
    <circle id="Ellipse_28" data-name="Ellipse 28" cx="2" cy="2" r="2" transform="translate(620 1196)" fill="#2c374c"/>
    <circle id="Ellipse_48" data-name="Ellipse 48" cx="2" cy="2" r="2" transform="translate(620 1252)" fill="#2c374c"/>
    <circle id="Ellipse_30" data-name="Ellipse 30" cx="2" cy="2" r="2" transform="translate(620 1210)" fill="#2c374c"/>
    <circle id="Ellipse_49" data-name="Ellipse 49" cx="2" cy="2" r="2" transform="translate(620 1266)" fill="#2c374c"/>
    <circle id="Ellipse_38" data-name="Ellipse 38" cx="2" cy="2" r="2" transform="translate(620 1224)" fill="#2c374c"/>
    <circle id="Ellipse_50" data-name="Ellipse 50" cx="2" cy="2" r="2" transform="translate(620 1280)" fill="#2c374c"/>
    <circle id="Ellipse_29" data-name="Ellipse 29" cx="2" cy="2" r="2" transform="translate(634 1196)" fill="#2c374c"/>
    <circle id="Ellipse_51" data-name="Ellipse 51" cx="2" cy="2" r="2" transform="translate(634 1252)" fill="#2c374c"/>
    <circle id="Ellipse_31" data-name="Ellipse 31" cx="2" cy="2" r="2" transform="translate(634 1210)" fill="#2c374c"/>
    <circle id="Ellipse_46" data-name="Ellipse 46" cx="2" cy="2" r="2" transform="translate(634 1266)" fill="#2c374c"/>
    <circle id="Ellipse_39" data-name="Ellipse 39" cx="2" cy="2" r="2" transform="translate(634 1224)" fill="#2c374c"/>
    <circle id="Ellipse_47" data-name="Ellipse 47" cx="2" cy="2" r="2" transform="translate(634 1280)" fill="#2c374c"/>
  </g>
</svg>
