<svg xmlns="http://www.w3.org/2000/svg" xmlns:xlink="http://www.w3.org/1999/xlink" width="153" height="153" viewBox="0 0 153 153">
  <defs>
    <clipPath id="clip-ccfavicon">
      <rect width="153" height="153"/>
    </clipPath>
  </defs>
  <g id="ccfavicon" clip-path="url(#clip-ccfavicon)">
    <g id="Path_73" data-name="Path 73" transform="translate(9 9)" fill="none">
      <path d="M67.5,0A67.5,67.5,0,1,1,0,67.5,67.5,67.5,0,0,1,67.5,0Z" stroke="none"/>
      <path d="M 67.5 10 C 35.79438781738281 10 10 35.79438781738281 10 67.5 C 10 99.20561218261719 35.79438781738281 125 67.5 125 C 99.20561218261719 125 125 99.20561218261719 125 67.5 C 125 35.79438781738281 99.20561218261719 10 67.5 10 M 67.5 0 C 104.7792205810547 0 135 30.22077941894531 135 67.5 C 135 104.7792205810547 104.7792205810547 135 67.5 135 C 30.22077941894531 135 0 104.7792205810547 0 67.5 C 0 30.22077941894531 30.22077941894531 0 67.5 0 Z" stroke="none" fill="#b928e5"/>
    </g>
    <circle id="Ellipse_98" data-name="Ellipse 98" cx="16" cy="16" r="16" transform="translate(61 61)" fill="#b928e5"/>
  </g>
</svg>
