<svg xmlns="http://www.w3.org/2000/svg" width="424.225" height="424.225" viewBox="0 0 424.225 424.225">
  <g id="fvf-logo-svg-vector" opacity="0.457" style="mix-blend-mode: overlay;isolation: isolate">
    <path id="Path_1" data-name="Path 1" d="M0,0H424.225V424.225H0Z" fill="rgba(255,255,255,0)" fill-rule="evenodd"/>
    <path id="Path_2" data-name="Path 2" d="M35.782,5.314h90.727V374.355H59.661c-12.842-.744-23.232-15.023-23.879-32.764V5.314Z" transform="translate(42.968 6.381)" fill="#ebd23d" fill-rule="evenodd"/>
    <path id="Path_3" data-name="Path 3" d="M77.007,5.314h85.267V374.355h-11.8a21.03,21.03,0,0,0-4.153.315,29.211,29.211,0,0,0-16.141,9.362,37.041,37.041,0,0,0-6.9,10.85,42.332,42.332,0,0,0-2.441,7.384c-.207.865-.383,1.723-.537,2.579h-1.323q-.231-1.284-.537-2.579A42.459,42.459,0,0,0,116,394.882a37.107,37.107,0,0,0-6.9-10.85,29.239,29.239,0,0,0-16.143-9.362,21.354,21.354,0,0,0-4.151-.315H77V5.314h0Z" transform="translate(92.47 6.381)" fill="#3486bf" fill-rule="evenodd"/>
    <path id="Path_4" data-name="Path 4" d="M115.75,5.314h90.73V341.591c-.649,17.741-11.039,32.02-23.884,32.764H115.75Z" transform="translate(138.997 6.381)" fill="#cd3529" fill-rule="evenodd"/>
    <path id="Path_5" data-name="Path 5" d="M126.75,75.246a55.666,55.666,0,1,1-55.664,55.666A55.775,55.775,0,0,1,126.75,75.246Z" transform="translate(85.363 90.358)" fill="#fff" fill-rule="evenodd"/>
    <path id="Path_6" data-name="Path 6" d="M126.751,75.246A55.277,55.277,0,0,1,148.5,79.683l-7.2,16.964,19.786,34.271h21.333A55.8,55.8,0,0,1,148.5,182.143l-7.2-16.957-.112.189H126.749v0H112.311l-.108-.189L105,182.143a55.8,55.8,0,0,1-33.919-51.225H92.418l19.788-34.271L105,79.683A55.228,55.228,0,0,1,126.751,75.246Zm34.335,55.67L141.3,165.183l7.2,16.957a55.5,55.5,0,0,1-43.489,0l7.2-16.957L92.422,130.916H71.089v0a55.8,55.8,0,0,1,33.919-51.231l7.2,16.964.108-.187h14.435v0h14.438l.112.189,7.2-16.964a55.8,55.8,0,0,1,33.919,51.229v0H161.086v0Zm-34.335,0v0Z" transform="translate(85.362 90.358)" fill="#fff" fill-rule="evenodd"/>
    <path id="Path_7" data-name="Path 7" d="M165.408,8.292V344.569c0,2.729,0,5.456-5.456,5.456s-5.458-2.725-5.458-5.456V8.292c0-2.729,0-5.458,5.458-5.458S165.408,5.565,165.408,8.292Z" transform="translate(185.522 3.403)" fill="#f4f4f4"/>
    <path id="Path_8" data-name="Path 8" d="M178.443,161.285a46.963,46.963,0,0,1-8.416,25.787c-5.227,7.175-12.474,11.77-20.62,12.241-2.725.158-5.451.319-5.746-5.141s2.425-5.614,5.15-5.773c4.69-.275,9.056-3.189,12.393-7.767a35.923,35.923,0,0,0,6.327-19.735c.1-2.725.2-5.451,5.656-5.262s5.355,2.921,5.256,5.65Z" transform="translate(172.487 186.881)" fill="#f4f4f4"/>
    <path id="Path_9" data-name="Path 9" d="M192.014,181.432H113.365c-2.729,0-5.458,0-5.458-5.458s2.729-5.456,5.458-5.456h78.649c2.729,0,5.458,0,5.458,5.456S194.743,181.432,192.014,181.432Z" transform="translate(129.579 204.764)" fill="#f4f4f4"/>
    <path id="Path_10" data-name="Path 10" d="M146.882,181.438q-.763-.008-1.525.051-.795.055-1.582.176a20.391,20.391,0,0,0-6.693,2.5,27.3,27.3,0,0,0-6.358,5.176,31.349,31.349,0,0,0-3.323,4.351,31.8,31.8,0,0,0-2.553,4.879l-.044.13c-.4.916-.794,1.93-1.155,3.031s-.687,2.24-.964,3.4v.022c-.224.946-1.2,4.371-1.2,4.384-1.307,4.866-9.072,4.956-10.489.1q-.683-2.236-1.318-4.488v-.022q-.407-1.718-.962-3.4c-.365-1.1-.753-2.115-1.16-3.031l-.042-.13a31.73,31.73,0,0,0-2.551-4.875,31.135,31.135,0,0,0-3.323-4.356,27.334,27.334,0,0,0-6.36-5.176,20.439,20.439,0,0,0-6.693-2.5q-.786-.122-1.58-.176-.761-.06-1.525-.051c-2.727.068-5.456.141-5.584-5.317s2.6-5.528,5.326-5.6a25.238,25.238,0,0,1,2.593.051,26.112,26.112,0,0,1,2.6.348,31.178,31.178,0,0,1,10.318,3.821,38.185,38.185,0,0,1,8.918,7.221,42.328,42.328,0,0,1,4.518,5.889q1.073,1.684,2.012,3.537.938-1.852,2.009-3.537a42.494,42.494,0,0,1,4.518-5.889,38.048,38.048,0,0,1,8.92-7.221,31.093,31.093,0,0,1,10.318-3.821,25.98,25.98,0,0,1,2.606-.348,25.106,25.106,0,0,1,2.588-.051c2.729.068,5.458.141,5.33,5.6S149.606,181.507,146.882,181.438Z" transform="translate(95.932 204.758)" fill="#f4f4f4"/>
    <path id="Path_11" data-name="Path 11" d="M128.264,181.432H49.61c-2.729,0-5.458,0-5.458-5.458s2.729-5.456,5.458-5.456h78.654c2.729,0,5.456,0,5.456,5.456s-2.727,5.458-5.456,5.458Z" transform="translate(53.019 204.764)" fill="#f4f4f4"/>
    <path id="Path_12" data-name="Path 12" d="M62.355,199.313c-8.147-.473-15.393-5.064-20.622-12.241a46.963,46.963,0,0,1-8.416-25.787c-.1-2.729-.2-5.456,5.258-5.647s5.557,2.535,5.656,5.262a35.946,35.946,0,0,0,6.327,19.735c3.336,4.578,7.7,7.492,12.393,7.767,2.725.158,5.449.315,5.15,5.773s-3.024,5.3-5.746,5.139Z" transform="translate(39.977 186.884)" fill="#f4f4f4"/>
    <path id="Path_13" data-name="Path 13" d="M33.3,344.569V8.292A5.87,5.87,0,0,1,38.76,2.834H305.484c2.725,0,5.456,0,5.456,5.458s-2.729,5.458-5.456,5.458H44.218V344.569c0,2.729,0,5.456-5.456,5.456s-5.46-2.725-5.46-5.456Z" transform="translate(39.99 3.403)" fill="#f4f4f4"/>
    <path id="Path_14" data-name="Path 14" d="M68.315,101.836H51.043V25.32H92.575V44.172H68.315V56.646H87.722v18.3H68.315v26.892Zm82.641-18.02,17.191-59.051h16.632l-26.337,77.626H143.2l-26.34-77.626h17.189l16.911,59.051Zm80.383,18.02H214.068V25.32H255.6V44.172H231.34V56.646h19.407v18.3H231.34v26.892Z" transform="translate(61.294 29.739)" fill="#fff" fill-rule="evenodd"/>
  </g>
</svg>
